/* XPM */
static char *_3b038ce91f84ba686fc64bf80c596103r8NXaubQoGR6z7m[] = {
/* columns rows colors chars-per-pixel */
"72 56 16 1 ",
"  c black",
". c #060606",
"X c #54FC54",
"o c #00A800",
"O c #54FCFC",
"+ c #00A8A8",
"@ c gray33",
"# c #0000A8",
"$ c #060606",
"% c #060606",
"& c #060606",
"* c #060606",
"= c #060606",
"- c #060606",
"; c #060606",
": c #060606",
/* pixels */
"               .....                                                    ",
"              .XXXXX.           .......                                 ",
"             .oooooXX.       ...OOOOOOO...                              ",
"            .oooooooXX.    ..++OOOOOOOOOOO..                            ",
"           .ooo...oooXX.  .+++OOOOOOOOOOOOOO.                           ",
"           .oo.....oooX. .+++OOOOOOOOOOOOOOOO.                          ",
"          .oo..@@@..ooX..++++OOOOOOOOOOOOOOOOO.                         ",
"          .oo...@@@.ooX.+++++OOOOOOOOOOOOOOOOOO.                        ",
"          .oo. .@@@.ooXX.+++OOOOOOOOOOOOOOOOOOOO.      ....             ",
"          .oo.  .@@.ooXX.+++OOOOOOOOOOOOOOOOOOOO.    ..XXXX..           ",
"          .oo.  .@@.oooX.+++OOOOOOOOOOOOOOOOOOOOO.  .XXXXXXXX.          ",
"          .oo.  .@@@.ooX.++++OOOOOOOOOOOOOOOOOOOO. .XooooXXXXX.         ",
"          .oo.  .@@@.ooXX.+++OOOOOOOOOOOOOOOOOOOO. .XooooooXXX.         ",
"          .oo.  .@@@.ooXX.++++OOOOOOOOOOOOOOOOOOOO.Xooo..ooXXXX.        ",
"          .oo.  .@@@.oooX.+++++OOOOOOOOOOOOOOOOOO.XXoo...oooXXX.        ",
"    ..    .oo.  .@@@.oooXX.++++++OOOOOOOOOOOOOOO.XXoo....oooXXX.        ",
"   .oX.   .oo.  .@@@.oooXXX....+++OOOOOOOO......XXXoo.@.ooooXXX.        ",
"    .X.  .ooo.   .@@.oooXXXXXXX...++++++..XXXXXXXXooo...oooooX.         ",
"    .oX...oo.    .@@@.ooXoXXXXXXXX.++++.XXXXXXXXoooo.@.oooooo.          ",
"    .ooXXooo.    .@@@.ooooXoXXXXXXX.++.XXXXXXXoooooo.@.oooooo.          ",
"     .ooooo.      .@@@.oooooXoooooo.++.oooXXoXooooo.@@.ooooo.           ",
"      .....       .@@@@.ooooooooooo.++.ooooooooooo.@@.ooooo.            ",
"   ...           .o.@@@@..ooooooooo.++.oooooooo...@@@.ooooX.            ",
"  .oXX.         .ooo.@@@@@..oooooo.++++.oooo...@@@@@..oooXX.            ",
" .o..oX.        .oooo..@@@@@.ooo..++++++..o.@@@@@... .oooXX.            ",
".o.  .oX.       .oooo.@.........@@@@@@@@@........oXX..oooXX.         .. ",
" .   .oX.       .ooo.@@@.@.....@@@@@@@@@@@....@@@.oXX.oooXX.        .Xo.",
"      .oX.     .oooo.@@@...##..............##..@@.ooX..ooXXX.      .X.@.",
"      .oX.     .ooo.@@@.  .##################..@@.ooX..ooXXX.      ..@. ",
"      .oX.     .ooo.@@@.   ..##############.. .@@.oo.  .ooXXX.   ..X.@. ",
"      .oXX.    .ooo.@@.      ..............  .@@.ooo.  .ooooXX...XX.@@. ",
"      .ooX.   .ooo.@@@.                      .@.ooo.    .oooooXXXoo.@.  ",
"       .ooX...oooo.@@.                       .@.ooX.     .ooooooo..@@.  ",
"       .oooooooo..@@.                        .@.ooX.      ...oo..@@@.   ",
"        .ooooo..@@@.                          .@.oX.   .     .......    ",
"         ..........                            .@.oX...X.               ",
"                                                .@.oXXX.                ",
"                                                 ......                 ",
"                                                                        ",
"                                                                        ",
"                                                                        ",
"                                                                        ",
"                                                                        ",
"                                                                        ",
"                                                                        ",
"                                                                        ",
"                                                                        ",
"                                                                        ",
"                                                                        ",
"      ....                               ..................             ",
"         ............................................                   ",
"               .................................                        ",
"                       ..........................                       ",
"                 .......................................                ",
"           ..................           ........................        ",
"                                                              .......   "
};
