/* XPM */
static char *bb139c1027d24e5097ac3e9571ed97c1j0O1l47vJGFAHn6d[] = {
/* columns rows colors chars-per-pixel */
"63 62 16 1 ",
"  c black",
". c #FC5454",
"X c #17120d",
"o c gray66",
"O c gray99",
"+ c gray33",
"@ c #A80000",
"# c #FCFC54",
"$ c #A85400",
"% c #17120d",
"& c #17120d",
"* c #17120d",
"= c #17120d",
"- c #17120d",
"; c #17120d",
": c #17120d",
/* pixels */
"                               . .   .                         ",
"                        . . . ..  .  ..                        ",
"                       .  . ...  ..  ....                      ",
"                     . ..   ... ..  .....                      ",
"                     . ... ............. .                     ",
"                    .. ... .XXXXXX...... .                     ",
"                    .. ....XoOoOOoX..... .                     ",
"                    ......XOOOOoOOOX... ..                     ",
"                    .. ..X+oOOoOOOooX.....                     ",
"                     ....Xo+XOOOOX+oX.....                     ",
"                     ....XoX.XXoX.XoX....                      ",
"                     ...Xoo+++X++++OOX...                      ",
"                   .  .@XooOOOXXoOOOoX..  .                    ",
" XXX  X             . ..@XXXoOOOOoXXX.@. .             XX  XXX ",
"XXO+XXOX            ...@.X+XOXXXXOX+X@....            XoOXX+OXX",
"XOXO+OoX             X..@X+XXXXXXXX+X.@.XX             XoO+OXOX",
" XOXOOoXX          XX@@@.X+XXXXXXXXoX@..@@X           XXoOOXOXX",
"XOXOOOXX#XX       X@@XXX@X+XooOOOOXOX.@XXX@X        XX#XXOOOXOX",
" XoOOooXO#@XXXX   X@@XXXXXXoOOOOOOOXXX.@XX@X    XXXX@OOXooOOoX ",
"  XooooXOO@@@@@XXXXX@@@.@XXXXXXXXXXXX.@.@@XXXXXX@@@@@OOXooooX  ",
"   XX++X##@@@@@@@@@XXX@@.@.@.@.@.@.@.@.@XXX@@@@@@@@@@##X++XX   ",
"     XXXOO@@X@@@@@@@@XX@@.@.@.@.@.@.@.@XX@@@@@@@@X@@XOOXXX     ",
"       X##@@@@@@@@@@@@XX@@@@@@@@@@@@@@XX@@@@@@@@@@@@X##X       ",
"       X##@@X@@X@@@@@@XXXX@@@@@@@@@@XX@X@@@@@@@@@X@@X##X       ",
"       X##@@X@@@@@X@@@@XX@XXXXXXXXXX.@X@@X@@X@@@@X@@X##X       ",
"       X$#@@X@@X@@@XX@X@X@@@@@@@@@@.@@X@@XXXX@X@X@@X@##X       ",
"       X#$@@X@@X@X@XX@@X@X@@.@.@.@.@.X@@X XX@X@XXX@X@##X       ",
"        X#@@X@@XX@XX XX@X@X@@@@.@.@@@X@@X XXX@X@X@XX#$X        ",
"        X$#@XX@XXXXX X@X@XX@@@@@@@@@X@X@X XX@X@XXX@X$#X        ",
"        X#$@X@XXXXX  XXX@@XX@@@@@@@X@@X@X  XXXXXX@X@#$X        ",
"        X$#XXX@XXX   X@X@X@X@@@@@@@X@@@@X   XXXX@XX@$#X        ",
"         X$@X@X@X    XXXX@X@X@@@@@X@@@X@X    XX@X@X@#$X        ",
"         X#XXX@XX    X@X@@@X@XXXXX@@@@X@X    XXX@X@#$X         ",
"         X$#XXXXX    XXXX@@@X@#$#@@@@@X@X    XX@XX@$#X         ",
"          X$@XXX     X@X@@@@@@#$#@@@@@X@X     XXXX@#$X         ",
"          XX$X       XXXX@@@@@#$#@@@@@X@X      XXX#$X          ",
"           XXX       X@X@@@@@@#$#@@@@@X@X        XX$X          ",
"           XX        XXXX@@@@@#$#@@@@@X@X          X           ",
"                     X@X@@@@@@#$#@@@@@X@X                      ",
"                     XXXX@@X@@#$#@@@@@X@X                      ",
"                     X@X@@@X@@#$#@@@@@X@X                      ",
"                     XXXX@@@@@#$#@@@@@X@@X                     ",
"                    XX@X@@X@@@#$#@@@X@X@@X                     ",
"                    X@XXX@X@@@#$#@@@@@@X@X                     ",
"                    XXXX@@X@@@#$#@@@X@@X@X                     ",
"                    X@X@@@X@@@#$#@@@X@@X@X                     ",
"                    XXXX@@X@@@#$#@@@X@@X@X                     ",
"                    X@X@@@X@@@#$#@@@X@@X@X                     ",
"                    XXXX@@X@@@#$#@@@X@@X@X                     ",
"                    X@X@@X@@@@#$#@@@X@@X@X                     ",
"                    XXXX@X@@@@#$#@@@X@@X@X                     ",
"                   XX@X@@X@@@@#$##@@X@@X@@X                    ",
"                   X@XX@@X@@@@#$##@@X@@X@@X                    ",
"                   XX@X@@X@@@@#$##@@X@@X@@X                    ",
"                   X@X@@@X@@@@#$##@@X@@X@@X                    ",
"                   XXXX@@X@@@@#$##@@X@@@X@X                    ",
"                   X@X@@@X@@@@#$##@@X@@@X@X                    ",
"                    X@@@X@@@@@#$##@@X@@@XX                     ",
"                    X@@@X@@@@@#$##@@X@@@@X                     ",
"                     X@@X@@@@@#$###@XX@@@X                     ",
"                      XXX@@@@@#$###@XXXXX                      ",
"                         XXXXX XXXXX                           "
};
