/* XPM */
static char *_cb5b6f1d0aa4962d933a41c5fe6c572dAtjP0WxKveP7Kez[] = {
/* columns rows colors chars-per-pixel */
"63 60 256 2 ",
"   c black",
".  c #ECECEC",
"X  c #B4B4B4",
"o  c gray44",
"O  c #7C7C7C",
"+  c gray66",
"@  c #484848",
"#  c gray22",
"$  c #202020",
"%  c #989898",
"&  c gray33",
"*  c #2C2C2C",
"=  c #980000",
"-  c #4C0000",
";  c #744C28",
":  c #700000",
">  c #880000",
",  c #640000",
"<  c #060606",
"1  c #483818",
"2  c #A86840",
"3  c #FC5C5C",
"4  c #400000",
"5  c #C87C4C",
"6  c #A0643C",
"7  c #FC7C7C",
"8  c #FCD8D8",
"9  c #FCB080",
"0  c #FCA470",
"q  c #D08050",
"w  c #885830",
"e  c #FC9C9C",
"r  c #646464",
"t  c #580000",
"y  c #E88C58",
"u  c #F0945C",
"i  c #B47044",
"p  c #EC0000",
"a  c #80502C",
"s  c #5C4020",
"d  c #C80000",
"f  c #BC7848",
"g  c #FCB8B8",
"h  c #FC9C60",
"j  c #DC8854",
"k  c #A40000",
"l  c #6C4824",
"z  c #E00000",
"x  c #7C0000",
"c  c #FC4040",
"v  c #B00000",
"b  c #9C6038",
"n  c #543C1C",
"m  c #006C6C",
"M  c #005858",
"N  c #004040",
"B  c #008484",
"V  c #007070",
"C  c #006464",
"Z  c #FC0000",
"A  c #FC2020",
"S  c #007878",
"D  c #007474",
"F  c #706C00",
"G  c #BC0000",
"H  c #9C9C00",
"J  c #848400",
"K  c #D40000",
"L  c #CCC400",
"P  c #006060",
"I  c #E4D800",
"U  c #343434",
"Y  c #00B4B4",
"T  c #009C9C",
"R  c #B4AC00",
"E  c gray19",
"W  c #C0C0C0",
"Q  c gray55",
"!  c #282828",
"~  c gray25",
"^  c #060606",
"/  c #060606",
"(  c #060606",
")  c #060606",
"_  c #060606",
"`  c #060606",
"'  c #060606",
"]  c #060606",
"[  c #060606",
"{  c #060606",
"}  c #060606",
"|  c #060606",
" . c #060606",
".. c #060606",
"X. c #060606",
"o. c #060606",
"O. c #060606",
"+. c #060606",
"@. c #060606",
"#. c #060606",
"$. c #060606",
"%. c #060606",
"&. c #060606",
"*. c #060606",
"=. c #060606",
"-. c #060606",
";. c #060606",
":. c #060606",
">. c #060606",
",. c #060606",
"<. c #060606",
"1. c #060606",
"2. c #060606",
"3. c #060606",
"4. c #060606",
"5. c #060606",
"6. c #060606",
"7. c #060606",
"8. c #060606",
"9. c #060606",
"0. c #060606",
"q. c #060606",
"w. c #060606",
"e. c #060606",
"r. c #060606",
"t. c #060606",
"y. c #060606",
"u. c #060606",
"i. c #060606",
"p. c #060606",
"a. c #060606",
"s. c #060606",
"d. c #060606",
"f. c #060606",
"g. c #060606",
"h. c #060606",
"j. c #060606",
"k. c #060606",
"l. c #060606",
"z. c #060606",
"x. c #060606",
"c. c #060606",
"v. c #060606",
"b. c #060606",
"n. c #060606",
"m. c #060606",
"M. c #060606",
"N. c #060606",
"B. c #060606",
"V. c #060606",
"C. c #060606",
"Z. c #060606",
"A. c #060606",
"S. c #060606",
"D. c #060606",
"F. c #060606",
"G. c #060606",
"H. c #060606",
"J. c #060606",
"K. c #060606",
"L. c #060606",
"P. c #060606",
"I. c #060606",
"U. c #060606",
"Y. c #060606",
"T. c #060606",
"R. c #060606",
"E. c #060606",
"W. c #060606",
"Q. c #060606",
"!. c #060606",
"~. c #060606",
"^. c #060606",
"/. c #060606",
"(. c #060606",
"). c #060606",
"_. c #060606",
"`. c #060606",
"'. c #060606",
"]. c #060606",
"[. c #060606",
"{. c #060606",
"}. c #060606",
"|. c #060606",
" X c #060606",
".X c #060606",
"XX c #060606",
"oX c #060606",
"OX c #060606",
"+X c #060606",
"@X c #060606",
"#X c #060606",
"$X c #060606",
"%X c #060606",
"&X c #060606",
"*X c #060606",
"=X c #060606",
"-X c #060606",
";X c #060606",
":X c #060606",
">X c #060606",
",X c #060606",
"<X c #060606",
"1X c #060606",
"2X c #060606",
"3X c #060606",
"4X c #060606",
"5X c #060606",
"6X c #060606",
"7X c #060606",
"8X c #060606",
"9X c #060606",
"0X c #060606",
"qX c #060606",
"wX c #060606",
"eX c #060606",
"rX c #060606",
"tX c #060606",
"yX c #060606",
"uX c #060606",
"iX c #060606",
"pX c #060606",
"aX c #060606",
"sX c #060606",
"dX c #060606",
"fX c #060606",
"gX c #060606",
"hX c #060606",
"jX c #060606",
"kX c #060606",
"lX c #060606",
"zX c #060606",
"xX c #060606",
"cX c #060606",
"vX c #060606",
"bX c #060606",
"nX c #060606",
"mX c #060606",
"MX c #060606",
"NX c #060606",
"BX c #060606",
"VX c #060606",
"CX c #060606",
"ZX c #060606",
"AX c #060606",
"SX c #060606",
"DX c #060606",
"FX c #060606",
"GX c #060606",
"HX c #060606",
"JX c #060606",
"KX c #060606",
"LX c #060606",
"PX c #060606",
"IX c #060606",
"UX c #060606",
/* pixels */
"                                                    . . . . . . . . . . X o                                                   ",
"                                                  . O + . . O @ @ # # # $   o                                                 ",
"                                                . % & . . O * @ @ @ @ @ # $   o                                               ",
"                                        = = = = . - @ . . ; $ * * * @ @ ; $ - # : > > >                                       ",
"                                      = , : : : . < @ . . ; 1 $ $ $ * @ 2 3 - < : : : > : >                                   ",
"                                    = , > 4 - - . - @ . 5 5 5 6 ; $ ; $ 2 7 - # - - - - > - ,                                 ",
"                                    = > 4 -     .   # 8 9 0 q q q q ; $ w e   r       - - : t                                 ",
"                                    = : -       .   w 8 ; ; y 0 u 9 ; ; w 8   r         : : -                                 ",
"                                    = : -       8   i 8 o p * a s * d o f 8   r         > : -                                 ",
"                                    = : -       g   w g i 2 2 y f 2 2 i f g   &         > : -                                 ",
"                                    : : -       g     g y h 9 9 j h h y f g k &         > : -                 :               ",
"                                      : - -     e     g 2 j 6 s s 6 5 2 l g z &       > : -                   x               ",
"                                      : : - -   e     g 2 5 6 < < 6 f w l e c &     > : : -                   >               ",
"          v k k =       x x             : : - - e     g b i n - - n i l l e 3 &     : : -                   k = : k           ",
">       x x x x x x   = =         m M M M M M M N *   e b i - t t - i l 1 7 * * N N M M N <               x k d > x x         ",
"  > d d v @ B V # = = = x * * * B V V V V V V V V N * r b 2 a : : a 2 l 1 * * N M C V V V M < $ * * : : : x d d = @ * :       ",
"  = Z A = v v = = d v d * # # B S S S S S S S S S D N * * w 2 2 2 2 w * * * N M C m m S S S m < $ # : d > V d F v @ > d :     ",
"    = Z 3 A k v d 3 d * * # B S S S m m m m m m m m m m N * * * * * * * N M C V V V m m m m m S < x # > G G d F v G d > :     ",
"  @ = d A H 3 3 J d v * * B B B B S S S m m m m m m m m m m * * * M m m m m m m m m m m m m m m S < $ V G F v F p K K > M *   ",
"> > v v z 3 H L 3 d z = A 3 3 B B B S V M M M M M M M M M M * N N V M M M M M M M M m m S S S S 3 = v K K K p J F p K v : *   ",
"G G z z z 3 L L 3 A v A A B B B S V V V C P M M M M M M M M * N N V M M M M M M P C m S S S 3 A A A A p F F J I J F p p = =   ",
"  V $ v z J 3 3 H 3 d $ B B S S V V V C M N N N N N N N N N * U U M N N N N N M N M M M P m S S D : > K K p p J F v G = : *   ",
"  # = v 3 d z c d Z Z V B B V V Y T T B B V C M M M M N * N * U U M N * N M M C V B B T T Y Y D D D $ > G G p F p p G , M *   ",
"    v Z v = d c = d Z = < V V V V M N N N N U * * * * * * N * U U M N * * * N N N N N N N A m D D D > K G G v p v G G > :     ",
"    v v = V v c M = = Z A S S V V Y T B B V C M M M M N * N * U U M N * N M C C V V B B T Y 3 m D D > K K > v p v , > K ,     ",
"  > v x # # v Z $ x - > = A S S V V M N N N N * * * * * * N * U U M N * * N N N N N N N N P m 3 3 : K > > * = G = * : , ,     ",
":   k x x x d Z x x -     > A B S V V C M N N N N N N N N N * U U M N N N N M N M M M P M C m 3 A > > : k x : A > x x x - =   ",
"    G x @ @ d Z k x -   G   V A B S V C P M N N N N N N N N * U U M N N N N N M N M M M P C m m > d d > > x @ v : @ * = = Z   ",
"    k G G # G c G B G G       B A S V C P M M N N N N N N N * U U M N N N N N N M N M P P C C m   > d d d v B = : M = = Z =   ",
"  G B G Z G d c z G c z   G   V S B C P P M N M N N N N N N * U U M N N N N N M N M M M P P C N   > = Z A = v v = = d Z d =   ",
"  @ V $ z 3 c J c c z G         V V C P M N M N N N N N N N * U U M N N N N N N M N M M P P N       v = Z 3 A k v d 3 d = *   ",
"  @ d G z c 7 R 7 c z G G x x   * * * * * * * * * * * * * * $ < < $ * * * * * * * * * * * * *         = d A H 3 3 J d v = *   ",
"v v c A c J R L R J c K c G G k x x , < < < < < < < < < < < < < < < < < < < < < < < < < < <       > > v v z 3 H L 3 d z = =   ",
"  @ d z z c 7 R 7 c z G G G   v v v k k = = > > x x x x x : : : : : x x x x x > > = = k k v v v = G G z z z 3 L L 3 A v > >   ",
"  & B G z z c J c z c z       > x , , , t t t - - 4 4 4 4 4 4 4 4 4 4 4 4 4 - - t t t , , , x >       M v z J 3 3 H 3 d M $   ",
"    V G G G v d G G z z G     V M $ < < < < < < < < < < < < * * < < < < < < < < < < < < < <           = v 3 d z z d Z Z *     ",
"    G M M $ = Z G M M G G     V M $ $ $ $ $ $ $ $ $ $ $ $ $ * * V M M M M M M M P P P C C C m m       v Z v = = = = d Z =     ",
"    = G * * = Z k x 4         V M M M N N N N N N N N N N N N N V M M M M M M P P P C C C C C m       v v = # M M $ = = Z =   ",
"    = t t - x d k 4 4         M * * * * * * * * * * * * * * * $ N N N N N N N N N N N N N N N N     >   = t t - - - 4 4 > =   ",
"              v >             M * * * * * * * * * * * * * * * $ N * * * * * * * * * * * * N N N   :                           ",
"              =                 $ $ $ $ $ $ $ $ $ $ $ $ $ $ $ $ N V M M M M M M M P P P C m N N                               ",
"              >                 M * * * * * * * * * * * * * $   N V M M M M M M M M P P C C N N                               ",
"              >                 M * * * * * * * * * * * * * $     V M M M M M M M M M P P P N                                 ",
"                            B V M * * * * * * * * * * * * * $     B V V V V V V V V V V V V V V M                             ",
"                            T B M E E E E E E E E E E E E E $     T T T T T T T T T T T T T T T V                             ",
"                          W T V M M M M M M M M M M M M M N * * @ T B B B B B B B B B B B B B B M @                           ",
"                          Q B N N N N N N N N N N N N N N N * # & B V V V V V V V V V V V V V V N &                           ",
"                          o V N E E E E E E E E E E E E E E * * # V M M M M M M M M M M M M M M * #                           ",
"                        B B M * ! ! ! ! ! ! ! ! ! ! ! ! ! ! ! $   M N N N N N N N N N N N N N N *                             ",
"                        B V N $ $ $ $ $ $ $ $ $ $ $ $ $ $ $ $ $   N * * * * * * * * * * * * * * *                             ",
"                        B V V V N $ $ $ $ $ $ $ $ $ $ $ $ * * $       * N N N N N N N N N N *                                 ",
"                        B V V V N * $ $ $ $ $ $ $ $ $ $ $ * * $       V M M M M M M M M M M *                                 ",
"                        B V V V M N * * * * * * * * * * * * * $       V M M M M M M M M M M *                                 ",
"                        B V V V V M N $ $ $ $ $ $ $ * * * * * $       V M M M M M M M M M M *                                 ",
"                        B V V V V V N               * * * * * $       V M M M M M M M M M M *                                 ",
"                        B V V V V V N @ ~ # # # # # * * * * * $ V V V V M M M M M M M M M M * N N N N E # @ & r               ",
"        r r r & & @ ~ # V * * * * * * * * * * * * * $ $ $ $ $ $ V V V V V V V V V V V V V V V V V V N * * E E U # @ & r r     ",
"  r r & & @ ~ # # # # # * * * * * * * * * * * * * * * * * * * * V V V V V V N N N N N N V V V V V V N * * * E E U # # @ & r   ",
"        r r & & @ ~ ~ # # # # # # # # # # # # # # # # # # # # # B V V V V V N N N N N N B V V V V V N ~ ~ ~ ~ ~ ~ @ @ & r r   ",
"                                                                V N N N N N             V N N N N N *                         "
};
