/* XPM */
static char *c7240906c6f749b4f10572f45b3488f2FKWp4YwKU2fCWdIb[] = {
/* columns rows colors chars-per-pixel */
"64 64 4 1 ",
"  c #ffffff",
". c #ffffff",
"X c #ffffff",
"o c #ffffff",
/* pixels */
"       ..........................X        .......XX          .  ",
"XXXXXXX     .....XXX        ... X XXXXXXXX  ...XXX XXXXXXXXX  XX",
"XXXXXXXXX        XX XXXXXXXX   XX XXXXXXXXXX XXXXX XXXXXXXXXXXXX",
"         X      XXXXXXXXXXXXX  XX XXXXXXXXXXX XXXXXXXXXXXXXXXXXX",
"XXXXXXXX      XXXXXX X         XXX   X   XXXX XXXX X  XXXXXX  XX",
"ooooooXXXX     XXX XXXXXXXXX    XXXXXXXX  XX      XXXX  XXXX XXo",
"ooooooooXXXX      XXXXXXXXXXXXXXX XXXXXXX        XXXXXX  XX  Xoo",
"oooooooooXXXX    XXXXXXXXXXXoooXXXXXXXXXXX     XXXXXXoXX     Xoo",
"ooooooooooXXXXXXXXXXXXXooXXoooooXXXXXXXXXXXX  XXXXXXooXXX   XXoo",
"ooooooooooXXXooXXXXXXXoooXXooooooXXXoooXXXXXX XXXoXXoooXXXXXXXoo",
"ooooooooooXXooooXXXXXoooooXooooooXXooooooXXXX XXooXXoooXXXXXXooo",
"oooooooooooXooooooooooooooXooooooXXoooooooXXX XoooXXooooXXXXXooo",
"oooooooooooXooooooooooXoooXooooooXXooooooooXX XoooXXoooooooXXooo",
"oooooooooooXoooooooooXXoooX.oooooXXooooooooXX XoooXXoooooooXXooo",
"ooooooooooooooooXoXXXXooooX..oooXXXooooooooXX XoooXXoooooooXXooo",
"ooooooooooooooooooooooooooo...X.XXXooooooooXXXXoooXXoooooooXXooo",
"oooooooooooXooooooooooooooX..o.X.X.ooooooooXX XoooXXoooooooXXooo",
"oooooooooooXoooooooooooooooo......oooooooooXX XoooXXoooooooXXooo",
"oooooooooooXooooooooooooooooo....ooooooooooXXXXoooXXoooooooXXooo",
"oooooooooooXoooooooooooooooXoooooooooooooooXXXXooooooooooooXoooo",
"ooooooooooXXooooooooooooooXooooooooooooooooXX XooooXooooooXXoooo",
"ooooooooXXXXXoooooooooooooXooooooooooooooooXXXXoooXXooooooXooooo",
"oooooooXoooooXoooooooooooXoooooooooooooooooXXXXoooXooooooXXooooo",
"ooooooXo.....ooooooooooooXXooooooooooooooooXXXXooooooooooXXooooo",
"oooooXoXoo.....ooooooooooXoooooooooooooooooXXXXooooooooooXooo.oo",
".....X.oooo.....ooooooooooXooooooooooooooooXXXXoooXoooooXXoooo..",
"......ooooooo...oooooooooXoooooooooooooooooXXXXoooooooooXXoooo..",
"....oooooooooo...ooooooooXXooooooooooooooooXXXXoooooooooXXooooo.",
"ooooooooooooooo..ooooooooXXooooooooooooooooXXXooooooooooXXoooooo",
"ooooooooooooooo..ooooooooXXooooooooooooooooXXXooooooooooXXoooooo",
"ooooXoooooooooo..ooooooooXXoooooooooooooooXXXXooooooooooXXoooooo",
"ooooXXooooooooo..ooooooooXXoooooooooooooooX.Xoooooooooo.XXoooooo",
"ooooooooooooooo..oooooooXXXooooooooooooooX.X.ooooooooooX.Xoooooo",
"ooooXoooooooooo...ooooooXXooooooooooooo.....ooooooooooX.Xooooooo",
"ooooXXooooooooo...oooX.X.Xooooooooooo......ooo..o........oXooooo",
"ooooXXoooooooooo......o.Xooooooooooo.oooooooooooooo.....ooXXoooo",
"ooooXXoooooooooo........ooooooooooo.oooooooooooooooooooooooXoooo",
"ooooXXooooooo.ooo......oooooooooooooooooooooooooooooooooooXooooo",
"ooooXXoooooooo.ooooooooooooooooooXooooooooooooooooooooooooXooooo",
"ooooXXooooooo.ooooooooooooooooooooXoooooooooooooooooooooooXXoooo",
"ooooXXooooooo..oooooooooooooooooooooooooooooooooooooooooooXXoooo",
"ooooXXooooooo..ooooooooooooooooooXooooooooooooooooooooooooXXoooo",
"ooooXXooooooo..ooooooXXXoooooooooXXoooooooooooooooooooooooXXoooo",
"ooooXXooooooo...ooooXXXXXooooooooXXoooooooooooooooooooooooXXoooo",
"oooXXoooooooo.......X.Xo.ooooooooXXoooooooooooooooooooooooX.oooo",
"ooX.Xoooooooo.........oo..oooooooXXooooooooooooo.o.o.ooooXo.oooo",
"oX..oooooooooo.......oooo..oooooXXXoooooooooooo..oooo......ooooo",
"..Xoooooooooooo.....ooooo..ooooXXXXooooooooooooXoooooo....oooo..",
"...oooooooooooooooooooooo..o.X.XXX.oooooo.ooooX.oooooooooooooX..",
"oooooooooXoooooooooooooooo..o.o.X.ooooooooooooXXooooooooooooX.oo",
"oooooooooooXooooooooooooXoo......oooooooo.ooooXXoooooo.ooooo..oo",
"ooooooooooooXooooooooXXoooooooooooooooooo.oooXXXoooooXo.......oo",
"XXoXoXoooooooXXXXXXXXoooooooooooooooooooo..oo.XoooooXoooo....ooX",
"XXXXXoXoXooooooXXXXoooooooXoXoXoXoXooooooo...X.ooXXXooooooooooXo",
"XXXXXXXXoXoXoooooooXoXoXoXoXoXoXoXoXoXooooo...oXXXoooooXoXoXoXXX",
"XXXXXXXXXXXoXoXoXoXoXoXXXXXXXXXXXXXXXXXoXoooooooooXoXoXXXXXXXXXX",
"XXXXXXXXXXXXXXXXXXXXXXXXXXXXXXXXXXXXXXXXXXoXoXoXoXoXXXXXXXXXXXXX",
"XXXXXXXXXXXXX   XXXXXXXXXXXXXXXXXXXXXXXXXXXXXXXXXXXXXXXXXXXXXXXX",
"XXXXXXXXX           XXXXXXXXXXXXXXXXXXX       XX  XX XXXXXXXXXXX",
"   X        XXXXXXXX  XXXXXXXXXXXX        XXXXooooooooXX X      ",
"XXXXXXXXXXXXooooooooooX XXXXXXX        XXXoooo........ooXXXXXXXX",
"ooooooooooo...........ooX          XXXXooo..............oooooooo",
"...........oooooo.......ooooooooooooooo...ooooooooo.............",
"ooooooooooooooooooooo..................ooooooooooooooooooooooooo"
};
